<svg xmlns="http://www.w3.org/2000/svg" width="200" height="200" class="icon" viewBox="0 0 1024 1024"><path fill="#4BBCA1" d="M520.85.424 913.012 121.98c21.65 2.633 37.813 19.6 37.813 39.567v458.498c0 89.667-71.821 184.892-213.415 283.042a1477.595 1477.595 0 0 1-202.884 116.654 46.881 46.881 0 0 1-38.104.44 1426.107 1426.107 0 0 1-206.32-114.095c-143.935-96.76-216.927-193.01-216.927-285.967V161.546c0-20.04 16.164-36.934 37.886-39.567L509.294.424a47.686 47.686 0 0 1 11.556 0zm199.372 292.184C586.82 371.597 490.06 471.43 446.396 521.455L339.76 440.711l-47.173 36.642 184.087 180.942c31.595-78.403 132.086-231.553 254.737-340.454l-11.19-25.233z"/></svg>